<svg width="168" height="24" viewBox="0 0 168 24" fill="none" xmlns="http://www.w3.org/2000/svg">
<path d="M11 0L13.4697 8.2918H21.4616L14.996 13.4164L17.4656 21.7082L11 16.5836L4.53436 21.7082L7.00402 13.4164L0.538379 8.2918H8.53035L11 0Z" fill="#E17141"/>
<path d="M48 0L50.4697 8.2918H58.4616L51.996 13.4164L54.4656 21.7082L48 16.5836L41.5344 21.7082L44.004 13.4164L37.5384 8.2918H45.5303L48 0Z" fill="#E17141"/>
<path d="M85 0L87.4697 8.2918H95.4616L88.996 13.4164L91.4656 21.7082L85 16.5836L78.5344 21.7082L81.004 13.4164L74.5384 8.2918H82.5303L85 0Z" fill="#E17141"/>
<path d="M121 0L123.47 8.2918H131.462L124.996 13.4164L127.466 21.7082L121 16.5836L114.534 21.7082L117.004 13.4164L110.538 8.2918H118.53L121 0Z" fill="#E17141"/>
<path d="M157 0L159.47 8.2918H167.462L160.996 13.4164L163.466 21.7082L157 16.5836L150.534 21.7082L153.004 13.4164L146.538 8.2918H154.53L157 0Z" fill="#E17141"/>
</svg>
